<?xml version="1.0" encoding="iso-8859-1"?>
<!-- Uploaded to: SVG Repo, www.svgrepo.com, Generator: SVG Repo Mixer Tools -->
<svg version="1.1" id="Layer_1" xmlns="http://www.w3.org/2000/svg" xmlns:xlink="http://www.w3.org/1999/xlink" 
	 viewBox="0 0 512 512" xml:space="preserve">
<path style="fill:#E592BF;" d="M384,369.778c31.418,0,56.889,25.471,56.889,56.889H512V85.333h-71.111
	c0,31.418-25.471,56.889-56.889,56.889s-56.889-25.471-56.889-56.889H0v341.333h327.111
	C327.111,395.248,352.582,369.778,384,369.778z"/>
<path style="fill:#E176AF;" d="M440.889,85.333c0,31.418-25.471,56.889-56.889,56.889s-56.889-25.471-56.889-56.889H256v341.333
	h71.111c0-31.418,25.471-56.889,56.889-56.889s56.889,25.471,56.889,56.889H512V85.333H440.889z"/>
<path style="fill:#F2B3D8;" d="M138.101,341.333l82.799-82.799c16.848-16.848,16.848-44.163,0-61.009
	c-16.848-16.848-44.163-16.848-61.01,0l-21.79,21.788l-21.79-21.788c-16.848-16.848-44.163-16.848-61.009,0
	c-16.848,16.848-16.848,44.163,0,61.009L138.101,341.333z"/>
<rect x="362.667" y="213.333" style="fill:#DC3B8B;" width="42.667" height="85.333"/>
</svg>