<?xml version="1.0" encoding="iso-8859-1"?>
<!-- Uploaded to: SVG Repo, www.svgrepo.com, Generator: SVG Repo Mixer Tools -->
<svg version="1.1" id="Layer_1" xmlns="http://www.w3.org/2000/svg" xmlns:xlink="http://www.w3.org/1999/xlink" 
	 viewBox="0 0 512 512" xml:space="preserve">
<path style="fill:#FFEA8A;" d="M426.667,256c0-47.128,38.205-85.333,85.333-85.333v-102.4H0v102.4
	c47.128,0,85.333,38.205,85.333,85.333S47.128,341.333,0,341.333v102.4h512v-102.4C464.872,341.333,426.667,303.128,426.667,256z"/>
<path style="fill:#FFDB2D;" d="M512,170.667v-102.4H256v375.467h256v-102.4c-47.128,0-85.333-38.205-85.333-85.333
	S464.872,170.667,512,170.667z"/>
<g>
	<rect x="324.267" y="392.533" style="fill:#FFAF33;" width="51.2" height="51.2"/>
	<rect x="324.267" y="284.45" style="fill:#FFAF33;" width="51.2" height="51.2"/>
	<rect x="324.267" y="176.35" style="fill:#FFAF33;" width="51.2" height="51.2"/>
	<rect x="324.267" y="68.267" style="fill:#FFAF33;" width="51.2" height="51.2"/>
</g>
</svg>