<svg xmlns="http://www.w3.org/2000/svg" xmlns:xlink="http://www.w3.org/1999/xlink" version="1.1" x="0px" y="0px" viewBox="0 0 96 120" style="enable-background:new 0 0 96 96;" xml:space="preserve"><path marker-start="none" marker-end="none" d="M10.6,70.1c0-0.3,0-0.6,0.1-0.8H9.2v1.3H6.4v-4.1h0.4v0h9.9l0.3-1H7.8v-9h80.3v9H79  l0.3,1h9.9v0h0.4v4.1h-2.8v-1.3h-1.5c0.1,0.3,0.1,0.5,0.1,0.8c0,1.9-1.5,3.4-3.4,3.4c-1.8,0-3.3-1.4-3.4-3.2H77v1.2h-6.6v-1.2h-1.4  c-0.1,1.8-1.5,3.2-3.4,3.2c-1.9,0-3.4-1.5-3.4-3.4c0-1.2,0.6-2.3,1.6-2.9H69l0.3-1.8h-9.6v5.8H48.8v-0.8h-2.9v0.8H42v-0.8h-2.9v0.8  h-3.8v-5.8h-8.5l0.3,1.8h5.1c1,0.6,1.6,1.7,1.6,2.9c0,1.9-1.5,3.4-3.4,3.4c-1.8,0-3.3-1.4-3.4-3.2h-1.4v1.2H19v-1.2h-1.8  c-0.1,1.8-1.5,3.2-3.4,3.2C12.1,73.5,10.6,72,10.6,70.1z M15,70.1c0-0.6-0.5-1.1-1.1-1.1c-0.6,0-1.1,0.5-1.1,1.1s0.5,1.1,1.1,1.1  C14.5,71.3,15,70.8,15,70.1z M31.5,70.1c0-0.6-0.5-1.1-1.1-1.1s-1.1,0.5-1.1,1.1s0.5,1.1,1.1,1.1S31.5,70.8,31.5,70.1z M66.7,70.1  c0-0.6-0.5-1.1-1.1-1.1c-0.6,0-1.1,0.5-1.1,1.1s0.5,1.1,1.1,1.1C66.2,71.3,66.7,70.8,66.7,70.1z M83.2,70.1c0-0.6-0.5-1.1-1.1-1.1  c-0.6,0-1.1,0.5-1.1,1.1s0.5,1.1,1.1,1.1C82.7,71.3,83.2,70.8,83.2,70.1z M57.7,69.3v-0.8h-6.3v0.8H57.7z M38.2,69.1v-0.8h-1.6v0.8  H38.2z M19.9,69v-3.5h-1.7V69H19.9z M22.9,69v-3.5h-1.7V69H22.9z M25.9,69v-3.5h-1.7V69H25.9z M71.8,69v-3.5h-1.7V69H71.8z M74.8,69  v-3.5h-1.7V69H74.8z M77.8,69v-3.5h-1.7V69H77.8z M57.7,67.6v-0.8h-6.3v0.8H57.7z M8.3,55.3l0-0.2v-1.4l1.5-8c1.7-1,3.6-2,6.8-3h5.7  v3h21.4v-4h3.6v4h2.9v-2.2h1v-1.8h6.6l0.1-1l14.9,1.5l0,0.3h0v3.2h1v-3h5.7c3.1,1,5.1,2,6.8,3l1.5,8v1.4l0,0.2H8.3z M13,53v-4.4  c0-0.2-0.2-0.4-0.4-0.4h-2.4l-0.8,5.2h3.1C12.9,53.4,13,53.2,13,53z M16.5,53v-4.4c0-0.2-0.2-0.4-0.4-0.4h-1.8  c-0.2,0-0.4,0.2-0.4,0.4V53c0,0.2,0.2,0.4,0.4,0.4h1.8C16.3,53.4,16.5,53.2,16.5,53z M20.7,53v-4.4c0-0.2-0.2-0.4-0.4-0.4h-1.8  c-0.2,0-0.4,0.2-0.4,0.4V53c0,0.2,0.2,0.4,0.4,0.4h1.8C20.6,53.4,20.7,53.2,20.7,53z M77.5,53v-4.4c0-0.2-0.2-0.4-0.4-0.4h-1.8  c-0.2,0-0.4,0.2-0.4,0.4V53c0,0.2,0.2,0.4,0.4,0.4h1.8C77.3,53.4,77.5,53.2,77.5,53z M82.1,53v-4.4c0-0.2-0.2-0.4-0.4-0.4h-1.8  c-0.2,0-0.4,0.2-0.4,0.4V53c0,0.2,0.2,0.4,0.4,0.4h1.8C81.9,53.4,82.1,53.2,82.1,53z M86.5,53.4l-0.8-5.2h-2.4  c-0.2,0-0.4,0.2-0.4,0.4V53c0,0.2,0.2,0.4,0.4,0.4H86.5z M65.4,45.7v-1.6h4.9l0-0.7L60,42.4l0,1.1h1v2.2H65.4z"/><text x="0" y="111" fill="#000000" font-size="5px" font-weight="bold" font-family="'Helvetica Neue', Helvetica, Arial-Unicode, Arial, Sans-serif">Created by Peter van Driel</text><text x="0" y="116" fill="#000000" font-size="5px" font-weight="bold" font-family="'Helvetica Neue', Helvetica, Arial-Unicode, Arial, Sans-serif">from the Noun Project</text></svg>