<svg xmlns="http://www.w3.org/2000/svg" version="1.1" x="0px" y="0px"
     viewBox="0 0 96 120" style="enable-background:new 0 0 96 96;" xml:space="preserve"><path marker-start="none" marker-end="none" d="M11.6,70.1c0-0.1,0-0.2,0-0.3H8.1v-3.4h3.6l0,2.6c0.3-0.8,0.8-1.4,1.5-1.8h-0.7v-1.6  h-1l0-0.5H8.2v-8.8c0-1.1,0.9-2,2-2h1.3V43.1h72.8l0,11.3h1.4c1.1,0,2,0.9,2,2v8.8h-3.5v0.4h0v0.1h-1v1.6h-0.7  c0.7,0.4,1.2,1,1.5,1.8v-2.6h3.6v3.4h-3.4c0,0.1,0,0.2,0,0.3c0,1.9-1.5,3.4-3.4,3.4c-1.8,0-3.3-1.4-3.4-3.2h-3  c-0.1,1.8-1.5,3.2-3.4,3.2c-1.9,0-3.4-1.5-3.4-3.4c0-1.3,0.8-2.4,1.8-3v-1.5h-0.9l-5.6,4c-0.1,0.1-0.3,0.1-0.4,0.1H32.1  c-0.2,0-0.3,0-0.4-0.1l-5.5-3.9l0,1.4c1.1,0.6,1.8,1.7,1.8,3c0,1.9-1.5,3.4-3.4,3.4c-1.8,0-3.3-1.4-3.4-3.2h-3  c-0.1,1.8-1.5,3.2-3.4,3.2C13.1,73.5,11.6,72,11.6,70.1z M16,70.1c0-0.6-0.5-1.1-1.1-1.1c-0.6,0-1.1,0.5-1.1,1.1s0.5,1.1,1.1,1.1  C15.5,71.3,16,70.8,16,70.1z M25.8,70.1c0-0.6-0.5-1.1-1.1-1.1c-0.6,0-1.1,0.5-1.1,1.1s0.5,1.1,1.1,1.1  C25.3,71.3,25.8,70.8,25.8,70.1z M72.4,70.1c0-0.6-0.5-1.1-1.1-1.1c-0.6,0-1.1,0.5-1.1,1.1s0.5,1.1,1.1,1.1  C71.9,71.3,72.4,70.8,72.4,70.1z M82.2,70.1c0-0.6-0.5-1.1-1.1-1.1c-0.6,0-1.1,0.5-1.1,1.1s0.5,1.1,1.1,1.1  C81.7,71.3,82.2,70.8,82.2,70.1z M44.4,68.3v-2.6H28.6l3.7,2.6H44.4z M51.9,68.3v-2.6h-6v2.6H51.9z M62.6,68.3l3.7-2.6H53.4v2.6  H62.6z M18.3,67.9v-0.6h-1.6c0.3,0.2,0.5,0.4,0.8,0.6H18.3z M23,67.3h-2.5v0.6h1.8C22.4,67.6,22.7,67.4,23,67.3z M75.5,67.9v-0.6H73  c0.3,0.2,0.5,0.4,0.8,0.6H75.5z M79.4,67.3h-1.6v0.6h0.9C78.8,67.6,79.1,67.4,79.4,67.3z M74.1,63.9V44.4h-1.3v19.5H74.1z   M11.6,62.2v-6.4h-1.3c-0.3,0-0.5,0.2-0.5,0.5v5.8H11.6z M86.4,62.2v-5.8c0-0.3-0.2-0.5-0.5-0.5h-1.4v6.4H86.4z M27,52.5v-3.3H15  v3.3c0,0.6,0.5,1.1,1.1,1.1h9.8C26.5,53.6,27,53.1,27,52.5z M41.3,52.5v-3.3h-12v3.3c0,0.6,0.5,1.1,1.1,1.1h9.8  C40.8,53.6,41.3,53.1,41.3,52.5z M55.5,52.5v-3.3h-12v3.3c0,0.6,0.5,1.1,1.1,1.1h9.8C55,53.6,55.5,53.1,55.5,52.5z M69.8,52.5v-3.3  h-12v3.3c0,0.6,0.5,1.1,1.1,1.1h9.8C69.3,53.6,69.8,53.1,69.8,52.5z M81.2,52.5V47c0-0.6-0.5-1.1-1.1-1.1H78c-0.6,0-1.1,0.5-1.1,1.1  v5.5c0,0.6,0.5,1.1,1.1,1.1h2.2C80.7,53.6,81.2,53.1,81.2,52.5z M27,48.1V47c0-0.6-0.5-1.1-1.1-1.1h-9.8c-0.6,0-1.1,0.5-1.1,1.1v1.1  H27z M41.3,48.1V47c0-0.6-0.5-1.1-1.1-1.1h-9.8c-0.6,0-1.1,0.5-1.1,1.1v1.1H41.3z M55.5,48.1V47c0-0.6-0.5-1.1-1.1-1.1h-9.8  c-0.6,0-1.1,0.5-1.1,1.1v1.1H55.5z M69.8,48.1V47c0-0.6-0.5-1.1-1.1-1.1h-9.8c-0.6,0-1.1,0.5-1.1,1.1v1.1H69.8z M11.6,41.5l0-2.2  h72.8l0,2.2H11.6z"/>
    <text x="0" y="111" fill="#000000" font-size="5px" font-weight="bold"
          font-family="'Helvetica Neue', Helvetica, Arial-Unicode, Arial, Sans-serif">Created by Peter van Driel</text>
    <text x="0" y="116" fill="#000000" font-size="5px" font-weight="bold"
          font-family="'Helvetica Neue', Helvetica, Arial-Unicode, Arial, Sans-serif">from the Noun Project</text></svg>
