<?xml version="1.0" encoding="utf-8"?>
<!-- Uploaded to: SVG Repo, www.svgrepo.com, Generator: SVG Repo Mixer Tools -->
<svg fill="lightcoral" width="800px" height="800px" viewBox="0 -4 40 40" version="1.1" xmlns="http://www.w3.org/2000/svg">
    <path transform="scale(1,1.1) translate(0,-2)" d="M39.5 23h0.5v1c-0.299 0-0.628 0-1 0-1.104 0-2 0.896-2 2 0 0.366 0 0.705 0 1h-34c0-0.295 0-0.634 0-1 0-1.104-0.896-2-2-2-0.319 0-0.666 0-1 0v-1h0.5c0.276 0 0.5-0.224 0.5-0.5s-0.224-0.5-0.5-0.5h-0.5v-1h0.5c0.276 0 0.5-0.224 0.5-0.5s-0.224-0.5-0.5-0.5h-0.5v-1h0.5c0.276 0 0.5-0.224 0.5-0.5s-0.224-0.5-0.5-0.5h-0.5v-1h0.5c0.276 0 0.5-0.224 0.5-0.5s-0.224-0.5-0.5-0.5h-0.5v-1h0.5c0.276 0 0.5-0.224 0.5-0.5s-0.224-0.5-0.5-0.5h-0.5v-1h0.5c0.276 0 0.5-0.224 0.5-0.5s-0.224-0.5-0.5-0.5h-0.5v-1h0.5c0.276 0 0.5-0.224 0.5-0.5s-0.224-0.5-0.5-0.5h-0.5v-1c0.299 0 0.628 0 1 0 1.104 0 2-0.896 2-2 0-0.366 0-0.705 0-1h34c0 0.295 0 0.634 0 1 0 1.104 0.896 2 2 2 0.372 0 0.701 0 1 0v1h-0.5c-0.276 0-0.5 0.224-0.5 0.5s0.224 0.5 0.5 0.5h0.5v1h-0.5c-0.276 0-0.5 0.224-0.5 0.5s0.224 0.5 0.5 0.5h0.5v1h-0.5c-0.276 0-0.5 0.224-0.5 0.5s0.224 0.5 0.5 0.5h0.5v1h-0.5c-0.276 0-0.5 0.224-0.5 0.5s0.224 0.5 0.5 0.5h0.5v1h-0.5c-0.276 0-0.5 0.224-0.5 0.5s0.224 0.5 0.5 0.5h0.5v1h-0.5c-0.276 0-0.5 0.224-0.5 0.5s0.224 0.5 0.5 0.5h0.5v1h-0.5c-0.276 0-0.5 0.224-0.5 0.5s0.224 0.5 0.5 0.5zM36 11c0-1.104-0.896-2-2-2h-28c-1.104 0-2 0.896-2 2v11c0 1.104 0.896 2 2 2h28c1.104 0 2-0.896 2-2v-11zM34 23h-28c-0.553 0-1-0.448-1-1v-11c0-0.553 0.447-1 1-1h28c0.552 0 1 0.447 1 1v11c0 0.552-0.448 1-1 1z"></path>
</svg>
