<?xml version="1.0" encoding="iso-8859-1"?>
<!-- Uploaded to: SVG Repo, www.svgrepo.com, Generator: SVG Repo Mixer Tools -->
<svg version="1.1" id="Layer_1" xmlns="http://www.w3.org/2000/svg" xmlns:xlink="http://www.w3.org/1999/xlink" 
	 viewBox="0 0 512 512" xml:space="preserve">
<path style="fill:#5CC4E0;" d="M137.024,387.87c0,35.616-28.866,64.482-64.482,64.482S8.06,423.486,8.06,387.87
	S72.542,280.4,72.542,280.4S137.024,352.254,137.024,387.87z"/>
<path style="fill:#439EE8;" d="M103.709,435.157c-35.616,0-64.482-28.866-64.482-64.482c0-21.451,23.389-56.042,41.995-80.168
	c-5.259-6.293-8.679-10.106-8.679-10.106S8.06,352.255,8.06,387.87s28.866,64.482,64.482,64.482c17.774,0,33.866-7.191,45.529-18.82
	C113.451,434.583,108.648,435.157,103.709,435.157z"/>
<g>
	<path style="fill:#E0DDDF;" d="M476.758,212.382L200.217,75.358l6.072-6.072c8.393-8.393,8.393-22.01,0-30.403l-3.041-3.041
		c-8.393-8.393-21.999-8.393-30.393,0L57.346,151.35c-8.393,8.393-8.393,22.01,0,30.403l3.041,3.041
		c8.393,8.393,21.999,8.393,30.393,0l6.083-6.083l137.014,276.553c11.381,28.759,48.501,36.443,70.371,14.573l187.095-187.095
		C513.212,260.873,505.517,223.763,476.758,212.382z"/>
	<polygon style="fill:#E0DDDF;" points="200.217,75.358 96.863,178.712 113.166,211.619 475.218,211.619 	"/>
</g>
<path style="fill:#5CC4E0;" d="M476.758,212.382l-1.54-0.763H113.166l120.71,243.645c11.381,28.759,48.501,36.443,70.371,14.573
	l187.095-187.095C513.212,260.873,505.517,223.763,476.758,212.382z"/>
<path style="fill:#439EE8;" d="M262.446,428.171L155.159,211.619h-41.993l120.71,243.645c11.381,28.759,48.501,36.443,70.371,14.573
	l21.149-21.149C303.365,462.73,272.621,453.885,262.446,428.171z"/>
<path style="fill:#C1BCBF;" d="M136.011,173.227l86.715-86.715l-22.51-11.153l6.072-6.072c8.393-8.393,8.393-22.01,0-30.403
	l-3.041-3.041c-8.393-8.393-21.999-8.393-30.393,0L57.346,151.35c-8.393,8.393-8.393,22.01,0,30.403l3.041,3.041
	c8.393,8.393,21.999,8.393,30.393,0l6.083-6.083l11.152,22.511l0,0l5.151,10.397h41.993l-9.831-19.843L136.011,173.227z"/>
<path style="fill:#E0DDDF;" d="M90.78,184.795c-8.393,8.393-21.999,8.393-30.393,0l-3.041-3.041c-8.393-8.393-8.393-22.01,0-30.403
	L172.855,35.841c8.393-8.393,21.999-8.393,30.393,0l3.041,3.041c8.393,8.393,8.393,22.01,0,30.403L90.78,184.795z"/>
<rect x="113.328" y="83.504" transform="matrix(-0.7071 -0.7071 0.7071 -0.7071 159.465 276.3706)" style="fill:#F9F8F9;" width="47.286" height="43.31"/>
<g>
	<circle style="fill:#BEE7F3;" cx="370.234" cy="269.653" r="30.092"/>
	<circle style="fill:#BEE7F3;" cx="301.453" cy="433.007" r="12.896"/>
	<circle style="fill:#BEE7F3;" cx="459.972" cy="242.248" r="18.807"/>
	<circle style="fill:#BEE7F3;" cx="401.938" cy="338.971" r="9.135"/>
	<circle style="fill:#BEE7F3;" cx="431.492" cy="293.296" r="13.971"/>
	<circle style="fill:#BEE7F3;" cx="246.644" cy="344.882" r="12.896"/>
	<circle style="fill:#BEE7F3;" cx="299.304" cy="371.75" r="11.822"/>
</g>
<path d="M510.93,241.999c-3.475-16.776-15.008-30.576-30.88-36.981l-90.118-44.653c-3.988-1.976-8.824-0.344-10.802,3.644
	c-1.976,3.988-0.344,8.824,3.644,10.801l90.407,44.796c0.201,0.099,0.405,0.19,0.613,0.272
	c11.139,4.408,18.921,13.664,21.352,25.392c2.429,11.725-1.034,23.307-9.503,31.775L298.547,464.138
	c-8.471,8.471-20.057,11.936-31.789,9.506c-11.727-2.43-20.98-10.21-25.388-21.345c-0.082-0.207-0.173-0.412-0.272-0.613
	L106.654,180.32l95.169-95.169l132.59,65.697c1.15,0.57,2.371,0.839,3.572,0.839c2.967,0,5.822-1.644,7.23-4.483
	c1.976-3.989,0.344-8.824-3.644-10.801L213.74,73.064c9.732-11.601,9.153-28.975-1.751-39.88l-3.042-3.042
	c-11.522-11.521-30.268-11.52-41.792,0L51.648,145.651c-5.582,5.582-8.657,13.005-8.657,20.901c0,7.896,3.074,15.319,8.656,20.901
	l3.041,3.041c5.582,5.582,13.003,8.656,20.895,8.656c7.025,0,13.671-2.441,18.986-6.911l131.942,266.316
	c6.404,15.869,20.203,27.398,36.977,30.874c3.47,0.719,6.959,1.071,10.42,1.071c13.388-0.001,26.346-5.27,36.038-14.963
	l187.096-187.095C509.237,276.247,514.429,258.886,510.93,241.999z M75.584,183.029c-3.587,0-6.96-1.397-9.496-3.934l-3.042-3.041
	c-2.536-2.537-3.933-5.912-3.933-9.503s1.397-6.965,3.934-9.502L178.554,41.541c2.62-2.619,6.058-3.928,9.498-3.928
	c3.438,0,6.878,1.31,9.496,3.927l3.041,3.041c5.239,5.239,5.239,13.765,0.001,19.004l-5.99,5.989
	c-0.056,0.055-0.112,0.11-0.167,0.167L85.08,179.096C82.543,181.633,79.171,183.029,75.584,183.029z"/>
<path d="M312.786,330.64l12.542-12.549c3.148-3.149,3.146-8.253-0.003-11.398c-3.15-3.148-8.254-3.146-11.398,0.003l-12.539,12.546
	l-12.921-12.921l24.696-24.704c3.147-3.148,3.146-8.252-0.002-11.398c-3.15-3.148-8.253-3.146-11.399,0.002l-24.692,24.701
	l-12.921-12.92l12.539-12.539c3.148-3.148,3.148-8.25,0-11.398s-8.25-3.149-11.399,0l-12.539,12.537l-12.92-12.92l24.702-24.693
	c3.148-3.147,3.149-8.25,0.002-11.398c-3.148-3.149-8.25-3.149-11.399-0.002l-24.703,24.694l-12.914-12.914l12.542-12.549
	c3.148-3.149,3.146-8.253-0.003-11.398c-3.148-3.148-8.252-3.147-11.398,0.003l-12.539,12.546l-12.921-12.921l24.696-24.704
	c3.147-3.148,3.146-8.252-0.002-11.398c-3.15-3.148-8.253-3.146-11.399,0.002l-24.693,24.701l-15.578-15.578
	c-3.149-3.148-8.252-3.148-11.399,0c-3.148,3.148-3.148,8.252,0,11.398l191.502,191.501c1.573,1.574,3.637,2.361,5.699,2.361
	c2.063,0,4.126-0.787,5.7-2.361c3.148-3.148,3.148-8.252-0.001-11.398l-18.62-18.62l24.702-24.693
	c3.148-3.147,3.149-8.25,0.002-11.398c-3.148-3.149-8.25-3.149-11.399-0.002l-24.703,24.694L312.786,330.64z"/>
<path d="M72.542,272.34c-2.289,0-4.47,0.974-5.999,2.677C59.732,282.606,0,350.253,0,387.87c0,40,32.542,72.542,72.542,72.542
	s72.542-32.542,72.542-72.542c0-37.616-59.732-105.264-66.543-112.853C77.012,273.313,74.831,272.34,72.542,272.34z M72.542,444.292
	c-31.11,0-56.422-25.31-56.422-56.422c0-23.982,36.459-71.76,56.422-95.207c19.963,23.447,56.422,71.225,56.422,95.207
	C128.964,418.982,103.653,444.292,72.542,444.292z"/>
<path d="M416.643,232.952c1.275,0.739,2.665,1.092,4.041,1.092c2.778,0,5.482-1.438,6.977-4.014
	c2.235-3.85,0.927-8.782-2.922-11.018c-2.646-1.536-5.293-3.073-7.96-4.571c-3.879-2.18-8.795-0.803-10.975,3.08
	c-2.18,3.881-0.801,8.795,3.08,10.975C411.484,229.957,414.064,231.454,416.643,232.952z"/>
<path d="M226.729,117.422c-3.945-2.059-8.816-0.53-10.875,3.418c-2.059,3.946-0.529,8.816,3.418,10.875
	c19.885,10.374,40.084,20.561,59.619,30.412c29.082,14.665,59.154,29.83,88.757,45.906c1.223,0.664,2.54,0.979,3.839,0.979
	c2.86,0,5.63-1.526,7.091-4.215c2.125-3.912,0.675-8.805-3.237-10.93c-29.819-16.191-60.003-31.412-89.192-46.134
	C266.663,137.907,246.515,127.745,226.729,117.422z"/>
<path d="M99.851,366.207c4.209,7.112,10.619,20.863,6.271,33.052c-3.089,8.661-9.712,15.957-18.171,20.016
	c-4.795,2.302-10.125,3.519-15.413,3.522c-4.451,0.002-8.058,3.612-8.056,8.063c0.002,4.45,3.61,8.057,8.06,8.057
	c0.001,0,0.003,0,0.004,0c7.684-0.003,15.424-1.77,22.38-5.108c12.259-5.884,21.874-16.503,26.381-29.134
	c4.859-13.625,2.168-30.203-7.581-46.677c-2.268-3.831-7.211-5.096-11.041-2.832C98.853,357.432,97.585,362.376,99.851,366.207z"/>
<path d="M85.439,344.642c1.564,2.272,4.085,3.493,6.649,3.493c1.574,0,3.165-0.46,4.56-1.42c3.668-2.522,4.595-7.541,2.074-11.209
	c-1.474-2.143-3.031-4.357-4.627-6.58c-2.598-3.617-7.634-4.444-11.249-1.85c-3.616,2.595-4.445,7.631-1.85,11.248
	C82.532,340.462,84.025,342.588,85.439,344.642z"/>
</svg>