<?xml version="1.0"?>
<svg width="240" height="140" xmlns="http://www.w3.org/2000/svg" xmlns:svg="http://www.w3.org/2000/svg" xmlns:xlink="http://www.w3.org/1999/xlink">
 <!-- Created with SVG-edit - https://github.com/SVG-Edit/svgedit-->
 <defs>
  <symbol height="24" id="svg_5" width="24" xmlns="http://www.w3.org/2000/svg" xmlns:svg="http://www.w3.org/2000/svg">
   <g class="layer">
    <title>Layer 1</title>
    <path d="m9.44,23.47c-0.03,-0.04 -0.06,-0.07 -0.09,-0.11c-0.01,-0.01 -0.02,-0.01 -0.02,-0.02l0,0c-0.31,-0.31 -0.8,-0.33 -1.14,-0.06l0,0l-0.98,-0.98c0.27,-0.34 0.25,-0.83 -0.06,-1.14c-0.31,-0.3 -0.8,-0.32 -1.13,-0.06l-0.01,0l-0.98,-0.98c0.27,-0.34 0.25,-0.83 -0.06,-1.14c-0.31,-0.3 -0.8,-0.32 -1.13,-0.06l-0.01,0l-0.98,-0.98c0.27,-0.34 0.25,-0.82 -0.06,-1.14c-0.31,-0.3 -0.8,-0.32 -1.13,-0.06l-0.01,0l-0.98,-0.98c0.27,-0.34 0.25,-0.82 -0.06,-1.13c-0.02,-0.03 -0.06,-0.04 -0.08,-0.06l13.91,-13.92c0.01,0.02 0.03,0.05 0.05,0.07c0.01,0 0.01,0.01 0.02,0.01l0,0c0,0 0,0.01 0,0.01c0.33,0.33 0.86,0.33 1.19,0c0,0 0,-0.01 0,-0.01c0.03,-0.02 0.03,-0.05 0.05,-0.07l0.98,0.98c-0.02,0.01 -0.04,0.02 -0.06,0.04c0,0 0,0.01 -0.01,0.01c-0.32,0.35 -0.31,0.89 0.03,1.23c0.02,0.03 0.05,0.05 0.07,0.07l0,0c0,0 0,0 0,0c0.33,0.33 0.86,0.33 1.19,0c0,0 0,0 0.01,0c0.02,-0.03 0.02,-0.05 0.04,-0.08l0.99,0.99c-0.03,0 -0.05,0.01 -0.07,0.03c0,0.01 0,0.01 -0.01,0.01c-0.33,0.34 -0.33,0.87 0,1.2s0.87,0.33 1.2,0c0.03,-0.02 0.03,-0.05 0.05,-0.07l0.98,0.98c-0.02,0.01 -0.04,0.02 -0.06,0.04c0,0 -0.01,0.01 -0.01,0.01c-0.33,0.33 -0.33,0.87 0,1.2s0.87,0.33 1.2,0c0.02,-0.02 0.02,-0.05 0.05,-0.07l0.98,0.98c-0.02,0.01 -0.05,0.02 -0.06,0.04c-0.01,0 -0.01,0 -0.01,0.01c-0.01,0 -0.01,0 -0.01,0c-0.33,0.33 -0.33,0.86 0,1.19c0,0 0,0 0,0.01c0.01,0 0.02,0.01 0.02,0.02c0.04,0.03 0.08,0.06 0.12,0.09l0,-0.01l-13.92,13.91zm9.26,-10.89l0.12,0.12c0.1,0.1 0.26,0.1 0.36,0s0.1,-0.26 0,-0.36l-0.13,-0.12c-0.09,-0.1 -0.26,-0.1 -0.35,0s-0.1,0.26 0,0.36zm-0.02,-4.75l2.11,2.11c0.1,0.1 0.26,0.1 0.36,0s0.1,-0.26 0,-0.36l-2.11,-2.11c-0.09,-0.1 -0.26,-0.1 -0.35,0s-0.1,0.26 0,0.36l-0.01,0zm-5.45,-3.89l6.78,6.78c0.1,0.1 0.26,0.1 0.36,0s0.1,-0.26 0,-0.36l-6.78,-6.78c-0.1,-0.1 -0.26,-0.1 -0.36,0s-0.1,0.26 0,0.36zm2.15,10.53l0.28,0c0.07,-0.01 0.13,-0.04 0.18,-0.09s0.08,-0.11 0.09,-0.18l0,0c-0.01,-0.05 -0.03,-0.11 -0.07,-0.15c-0.06,-0.06 -0.13,-0.08 -0.21,-0.07l0,0l-2.13,0c-0.06,-0.01 -0.13,0.02 -0.18,0.07s-0.07,0.11 -0.07,0.18c0,0.06 0.02,0.12 0.06,0.17c0.02,0.01 0.03,0.02 0.05,0.03l0,0l-2.5,2.5c-0.01,-0.01 -0.02,-0.03 -0.04,-0.04c-0.05,-0.05 -0.11,-0.07 -0.17,-0.06c-0.06,-0.01 -0.13,0.02 -0.18,0.07s-0.07,0.11 -0.07,0.18l0,2.13c0,0.06 0.02,0.13 0.07,0.18s0.12,0.07 0.18,0.07c0.07,-0.01 0.13,-0.03 0.18,-0.08s0.08,-0.12 0.08,-0.18l0,0l0,-0.29l4.45,-4.44zm2.48,-2.72l0.12,0.12c0.09,0.1 0.26,0.1 0.36,0s0.09,-0.26 0,-0.36l-0.13,-0.12c-0.09,-0.1 -0.26,-0.1 -0.35,0s-0.1,0.26 0,0.36zm-0.84,-0.84l0.12,0.12c0.1,0.1 0.26,0.1 0.36,0s0.1,-0.26 0,-0.36l-0.12,-0.12c-0.1,-0.1 -0.26,-0.1 -0.36,0s-0.1,0.26 0,0.36zm-0.84,-0.84l0.12,0.12c0.1,0.1 0.26,0.1 0.36,0s0.1,-0.26 0,-0.36l-0.12,-0.12c-0.1,-0.1 -0.26,-0.1 -0.36,0s-0.1,0.26 0,0.36zm-9.93,1.74l0.04,0.03c-0.49,0.67 -0.43,1.61 0.16,2.21l2.44,2.43c0.39,0.39 1.02,0.39 1.41,0l2.52,-2.51c0.39,-0.39 0.39,-1.03 0,-1.42l-2.44,-2.43c-0.6,-0.6 -1.53,-0.66 -2.19,-0.17l-0.01,0l-0.04,-0.03c-0.1,-0.1 -0.26,-0.1 -0.36,0l-1.53,1.53c-0.09,0.1 -0.09,0.26 0,0.36zm9.09,-2.57l0.12,0.12c0.1,0.1 0.26,0.1 0.36,0s0.1,-0.26 0,-0.36l-0.12,-0.12c-0.1,-0.1 -0.26,-0.1 -0.36,0s-0.1,0.26 0,0.36zm-0.84,-0.84l0.12,0.12c0.1,0.1 0.26,0.1 0.36,0s0.1,-0.26 0,-0.36l-0.12,-0.12c-0.1,-0.1 -0.26,-0.1 -0.36,0s-0.1,0.26 0,0.36zm-0.84,-0.84l0.12,0.12c0.1,0.1 0.26,0.1 0.36,0s0.1,-0.26 0,-0.36l-0.12,-0.12c-0.1,-0.1 -0.26,-0.1 -0.36,0s-0.1,0.26 0,0.36zm1.68,-2.99l0.6,0.6c0.1,0.09 0.26,0.09 0.36,0s0.09,-0.26 0,-0.36l-0.6,-0.6c-0.1,-0.1 -0.26,-0.1 -0.36,0s-0.1,0.26 0,0.36zm-2.52,2.15l0.12,0.12c0.1,0.1 0.26,0.1 0.36,0s0.1,-0.26 0,-0.36l-0.12,-0.12c-0.1,-0.1 -0.26,-0.1 -0.36,0s-0.1,0.26 0,0.36zm1.21,-3.46l0.6,0.6c0.1,0.1 0.26,0.1 0.36,0s0.1,-0.26 0,-0.36l-0.6,-0.6c-0.1,-0.1 -0.26,-0.1 -0.36,0s-0.1,0.26 0,0.36zm-2.04,2.62l0.12,0.12c0.09,0.1 0.26,0.1 0.35,0s0.1,-0.26 0,-0.36l-0.12,-0.12c-0.1,-0.1 -0.26,-0.1 -0.36,0s-0.09,0.26 0,0.36l0.01,0zm-0.84,-0.83l0.12,0.12c0.1,0.09 0.26,0.09 0.36,0s0.09,-0.26 0,-0.36l-0.13,-0.12c-0.09,-0.1 -0.26,-0.1 -0.35,0s-0.1,0.26 0,0.35l0,0.01zm-0.22,13.14l-0.01,-0.61l3.13,-3.12l0.61,0.01l-3.73,3.72zm-0.99,-2.07c-0.19,0.19 -0.5,0.19 -0.7,0l-1.11,-1.11l3.21,-3.21l1.11,1.11c0.2,0.19 0.2,0.5 0,0.69l-2.51,2.52zm0.84,-2.2c0.3,0.3 0.79,0.3 1.1,0s0.3,-0.8 0,-1.1s-0.8,-0.31 -1.1,0c-0.3,0.3 -0.3,0.79 0,1.1zm-1.65,1.65s0,0 0,0c0.3,0.3 0.79,0.3 1.1,0c0,0 0,0 0,0c0.3,-0.31 0.3,-0.8 0,-1.1s0,0 0,0c-0.31,-0.31 -0.8,-0.31 -1.1,0c0,0 0,0 0,0c-0.3,0.3 -0.3,0.79 0,1.1zm2,-2.02c-0.11,-0.11 -0.11,-0.28 0,-0.39s0.27,-0.1 0.38,0c0.1,0.11 0.11,0.28 0,0.39c0,0 0,0 0,0c-0.11,0.1 -0.28,0.1 -0.38,0c0,0 0,0 0,0zm-1.66,1.65c-0.1,-0.11 -0.1,-0.28 0,-0.39s0.28,-0.1 0.39,0s0.1,0.28 0,0.39c0,0 -0.01,0 -0.01,0c-0.1,0.1 -0.27,0.1 -0.37,0c-0.01,0 -0.01,0 -0.01,0zm-1.7,-0.55l-0.96,-0.96c0,0 0,0 0,-0.01c-0.46,-0.46 -0.46,-1.2 0,-1.66c0,0 0,-0.01 0,-0.01l1.53,-1.53c0.01,0 0.01,0 0.01,-0.01c0.46,-0.46 1.21,-0.46 1.67,0l0,0.01l0.96,0.96l-3.21,3.21z" fill="url(#svg_1)" id="svg_4" transform="rotate(44.706 11.945 12.06)"/>
   </g>
   <defs>
    <linearGradient id="svg_1">
     <stop id="svg_3" offset="0" stop-color="#84c460"/>
     <stop id="svg_2" offset="1" stop-color="#7b3b9f"/>
    </linearGradient>
   </defs>
  </symbol>
 </defs>
 <g class="layer">
  <title>Layer 1</title>
  <use id="svg_6" transform="matrix(10.9992 0 0 10.6604 -98.6588 -192.208)" x="7.76" xlink:href="#svg_5" y="12.57"/>
 </g>
</svg>