<?xml version="1.0" encoding="iso-8859-1"?>
<!-- Uploaded to: SVG Repo, www.svgrepo.com, Generator: SVG Repo Mixer Tools -->
<svg version="1.1" id="Layer_1" xmlns="http://www.w3.org/2000/svg" xmlns:xlink="http://www.w3.org/1999/xlink"
	 viewBox="0 0 512 512" xml:space="preserve">
<path style="fill:#DFFF46;" d="M488.989,156.993v40.477H512v38.291h-23.011v40.477H512v38.291h-23.011v40.477H512v42.962H47.932
	c0-26.59-21.458-48.151-47.932-48.151V161.998c26.417,0,47.829-21.458,47.932-47.967H512v42.962H488.989z"/>
<polygon style="fill:#ccFF00;" points="488.989,156.993 488.989,197.47 512,197.47 512,235.761 488.989,235.761 488.989,276.237
	512,276.237 512,314.528 488.989,314.528 488.989,355.005 512,355.005 512,397.967 270.186,397.967 270.186,114.031 512,114.031
	512,156.993 "/>
<rect x="133.25" y="161.979" style="fill:#EEE;" width="303.68" height="188.05"/>
<g>
	<rect x="270.19" y="161.979" style="fill:#F5F5F5;" width="166.74" height="188.05"/>
	<path style="fill:#F5F5F5;" d="M101.824,203.191H72.076c-4.767,0-8.629-3.864-8.629-8.629c0-4.765,3.862-8.629,8.629-8.629h29.748
		c4.767,0,8.629,3.864,8.629,8.629C110.453,199.327,106.59,203.191,101.824,203.191z"/>
	<path style="fill:#F5F5F5;" d="M101.824,233.909H72.076c-4.767,0-8.629-3.864-8.629-8.629c0-4.765,3.862-8.629,8.629-8.629h29.748
		c4.767,0,8.629,3.864,8.629,8.629C110.453,230.046,106.59,233.909,101.824,233.909z"/>
	<path style="fill:#F5F5F5;" d="M101.824,264.628H72.076c-4.767,0-8.629-3.864-8.629-8.629s3.862-8.629,8.629-8.629h29.748
		c4.767,0,8.629,3.864,8.629,8.629C110.453,260.764,106.59,264.628,101.824,264.628z"/>
	<path style="fill:#F5F5F5;" d="M101.824,295.347H72.076c-4.767,0-8.629-3.864-8.629-8.629s3.862-8.629,8.629-8.629h29.748
		c4.767,0,8.629,3.864,8.629,8.629S106.59,295.347,101.824,295.347z"/>
	<path style="fill:#F5F5F5;" d="M101.824,326.066H72.076c-4.767,0-8.629-3.864-8.629-8.629s3.862-8.629,8.629-8.629h29.748
		c4.767,0,8.629,3.864,8.629,8.629S106.59,326.066,101.824,326.066z"/>
</g>
</svg>
