<?xml version="1.0"?>
<svg width="1024" height="799.9999999999999" xmlns="http://www.w3.org/2000/svg" xmlns:svg="http://www.w3.org/2000/svg" class="icon" version="1.1">
 <g class="layer">
  <title>Layer 1</title>
  <path d="m894.95,102l-772.76,0a90.91,95.73 0 0 1 -90.91,95.73l0,406.87a90.91,95.73 0 0 1 90.91,95.73l772.76,0a90.91,95.73 0 0 1 90.91,-95.73l0,-406.87a90.91,95.73 0 0 1 -90.91,-95.73z" fill="#ffaaaa" id="svg_1"/>
  <path d="m681.16,281.13m-34.09,0a34.09,35.9 0 1 0 68.18,0a34.09,35.9 0 1 0 -68.18,0z" fill="#77476d" fill-opacity="0.34" id="svg_2" transform="matrix(1 0 0 1 0 0)"/>
  <path d="m681.16,161.46m-34.09,0a34.09,35.9 0 1 0 68.18,0a34.09,35.9 0 1 0 -68.18,0z" fill="#77476d" fill-opacity="0.34" id="svg_3" transform="matrix(1 0 0 1 0 0)"/>
  <path d="m681.16,400.79m-34.09,0a34.09,35.9 0 1 0 68.18,0a34.09,35.9 0 1 0 -68.18,0z" fill="#77476d" fill-opacity="0.34" id="svg_4" transform="matrix(1 0 0 1 0 0)"/>
  <path d="m681.16,520.46m-34.09,0a34.09,35.9 0 1 0 68.18,0a34.09,35.9 0 1 0 -68.18,0z" fill="#77476d" fill-opacity="0.34" id="svg_5" transform="matrix(1 0 0 1 0 0)"/>
  <path d="m681.16,640.13m-34.09,0a34.09,35.9 0 1 0 68.18,0a34.09,35.9 0 1 0 -68.18,0z" fill="#77476d" fill-opacity="0.34" id="svg_6" transform="matrix(1 0 0 1 0 0)"/>
  <path d="m147.06,293.09l409.1,0l0,71.8l-409.1,0l0,-71.8zm0,143.6l272.73,0l0,71.8l-272.73,0l0,-71.8z" fill="#cc7878" id="svg_7" transform="matrix(1 0 0 1 0 0)"/>
 </g>
</svg>