<?xml version="1.0" encoding="iso-8859-1"?>
<!-- Uploaded to: SVG Repo, www.svgrepo.com, Generator: SVG Repo Mixer Tools -->
<svg version="1.1" xmlns="http://www.w3.org/2000/svg" xmlns:xlink="http://www.w3.org/1999/xlink"
	 viewBox="0 0 370 370" xml:space="preserve">
<g>
	<path style="fill:#A86DD6;" d="M335,185c0-20.397,15.27-37.216,35-39.678V75H0v70.322
		c19.73,2.462,35,19.281,35,39.678s-15.27,37.216-35,39.678V295h370v-70.322C350.27,222.216,335,205.397,335,185z"/>
	<rect x="65" y="130" style="fill:#E8C1E6;" width="240" height="110"/>
	<path style="fill:#7429A8;" d="M370,145.322V75H185v220h185v-70.322c-19.73-2.462-35-19.281-35-39.678
		S350.27,147.784,370,145.322z"/>
	<polygon style="fill:#C88EF0;" points="185,130 185,195 205,195 205,215 185,215 185,240 305,240 305,130 	"/>
	<rect x="95" y="195"  style="fill:#A86DD6;" width="40" height="20"/>
	<rect x="165" y="195" style="fill:#7429A8;" width="40" height="20"/>
	<rect x="235" y="195" style="fill:#7429A8;" width="40" height="20"/>
</g>
</svg>
